<svg width="492" height="360" viewBox="0 0 492 360" fill="none" xmlns="http://www.w3.org/2000/svg">
<g filter="url(#filter0_dd)">
<rect x="16" y="8" width="460" height="327.339" rx="5" fill="#EBEBEB"/>
<mask id="mask0" mask-type="alpha" maskUnits="userSpaceOnUse" x="16" y="8" width="460" height="328">
<rect x="16" y="8" width="460" height="327.339" rx="5" fill="white"/>
</mask>
<g mask="url(#mask0)">
<g filter="url(#filter1_d)">
<rect x="16" y="8" width="460" height="24.5504" fill="white"/>
</g>
<path d="M61.812 25.6125V18.259H62.6519V21.179H62.73C62.8634 20.8827 63.0669 20.6549 63.3403 20.4954C63.617 20.3359 63.9539 20.2561 64.3511 20.2561C64.911 20.2561 65.3537 20.4286 65.6792 20.7737C66.0047 21.1155 66.1675 21.5924 66.1675 22.2043V25.6125H65.3276V22.4094C65.3276 21.4784 64.9224 21.0129 64.1118 21.0129C63.6496 21.0129 63.2899 21.148 63.0327 21.4182C62.7788 21.6851 62.6519 22.0448 62.6519 22.4973V25.6125H61.812ZM68.0522 18.9866H68.8921V20.3489H70.064V21.052H68.8921V24.0305C68.8921 24.3398 68.9539 24.5644 69.0776 24.7043C69.2013 24.8443 69.3999 24.9143 69.6733 24.9143C69.7938 24.9143 69.924 24.9078 70.064 24.8948V25.6028C69.8784 25.6353 69.714 25.6516 69.5708 25.6516C69.0272 25.6516 68.6382 25.5426 68.4038 25.3245C68.1694 25.1064 68.0522 24.7467 68.0522 24.2454V21.052H67.2026V20.3489H68.0522V18.9866ZM71.6851 18.9866H72.5249V20.3489H73.6968V21.052H72.5249V24.0305C72.5249 24.3398 72.5868 24.5644 72.7104 24.7043C72.8341 24.8443 73.0327 24.9143 73.3062 24.9143C73.4266 24.9143 73.5568 24.9078 73.6968 24.8948V25.6028C73.5112 25.6353 73.3468 25.6516 73.2036 25.6516C72.66 25.6516 72.271 25.5426 72.0366 25.3245C71.8022 25.1064 71.6851 24.7467 71.6851 24.2454V21.052H70.8354V20.3489H71.6851V18.9866ZM77.5298 20.2561C78.2004 20.2561 78.7358 20.5035 79.1362 20.9983C79.5399 21.4931 79.7417 22.1539 79.7417 22.9807C79.7417 23.8043 79.5399 24.4651 79.1362 24.9631C78.7326 25.4579 78.1971 25.7053 77.5298 25.7053C77.1554 25.7053 76.8234 25.6288 76.5337 25.4758C76.244 25.3196 76.0275 25.1015 75.8843 24.8215H75.8062V27.3704H74.9663V20.3489H75.7671V21.2278H75.8452C76.0145 20.925 76.2472 20.6874 76.5435 20.5149C76.8429 20.3424 77.1717 20.2561 77.5298 20.2561ZM77.3296 24.9485C77.8114 24.9485 78.189 24.7743 78.4624 24.426C78.7358 24.0777 78.8726 23.5959 78.8726 22.9807C78.8726 22.3655 78.7358 21.8837 78.4624 21.5354C78.1922 21.1871 77.8162 21.0129 77.3345 21.0129C76.8592 21.0129 76.4816 21.1903 76.2017 21.5452C75.9217 21.8967 75.7817 22.3752 75.7817 22.9807C75.7817 23.5829 75.9201 24.0614 76.1968 24.4163C76.4767 24.7711 76.8543 24.9485 77.3296 24.9485ZM81.7534 25.6614C81.5809 25.6614 81.4312 25.5995 81.3042 25.4758C81.1805 25.3489 81.1187 25.1991 81.1187 25.0266C81.1187 24.8508 81.1805 24.7011 81.3042 24.5774C81.4312 24.4537 81.5809 24.3918 81.7534 24.3918C81.9292 24.3918 82.0789 24.4537 82.2026 24.5774C82.3263 24.7011 82.3882 24.8508 82.3882 25.0266C82.3882 25.1991 82.3263 25.3489 82.2026 25.4758C82.0789 25.5995 81.9292 25.6614 81.7534 25.6614ZM81.7534 21.9065C81.5809 21.9065 81.4312 21.8446 81.3042 21.7209C81.1805 21.594 81.1187 21.4443 81.1187 21.2717C81.1187 21.0959 81.1805 20.9462 81.3042 20.8225C81.4312 20.6988 81.5809 20.637 81.7534 20.637C81.9292 20.637 82.0789 20.6988 82.2026 20.8225C82.3263 20.9462 82.3882 21.0959 82.3882 21.2717C82.3882 21.4443 82.3263 21.594 82.2026 21.7209C82.0789 21.8446 81.9292 21.9065 81.7534 21.9065ZM84.2632 27.1995H83.5308L85.6792 18.5667H86.4214L84.2632 27.1995ZM87.7397 27.1995H87.0073L89.1558 18.5667H89.8979L87.7397 27.1995Z" fill="#909090"/>
<path d="M92.9302 25.7053C92.2563 25.7053 91.7192 25.4579 91.3188 24.9631C90.9185 24.4683 90.7183 23.8075 90.7183 22.9807C90.7183 22.1571 90.9185 21.498 91.3188 21.0032C91.7225 20.5051 92.2596 20.2561 92.9302 20.2561C93.298 20.2561 93.6268 20.3391 93.9165 20.5051C94.2095 20.6679 94.4308 20.8925 94.5806 21.179H94.6538V18.259H95.4937V25.6125H94.6929V24.7727H94.6147C94.4487 25.0657 94.2176 25.2952 93.9214 25.4612C93.6252 25.6239 93.2948 25.7053 92.9302 25.7053ZM93.1255 21.0129C92.647 21.0129 92.271 21.1887 91.9976 21.5403C91.7241 21.8886 91.5874 22.3687 91.5874 22.9807C91.5874 23.5959 91.7225 24.0777 91.9927 24.426C92.2661 24.7743 92.6437 24.9485 93.1255 24.9485C93.604 24.9485 93.9816 24.7727 94.2583 24.4211C94.535 24.0696 94.6733 23.5894 94.6733 22.9807C94.6733 22.3785 94.5334 21.9 94.2534 21.5452C93.9767 21.1903 93.6007 21.0129 93.1255 21.0129ZM99.2241 20.9983C98.8042 20.9983 98.4591 21.1399 98.189 21.4231C97.9188 21.7063 97.7674 22.0806 97.7349 22.5461H100.635C100.625 22.0806 100.492 21.7063 100.235 21.4231C99.9777 21.1399 99.6408 20.9983 99.2241 20.9983ZM100.611 24.2502H101.451C101.324 24.706 101.065 25.0624 100.674 25.3196C100.287 25.5767 99.8068 25.7053 99.2339 25.7053C98.5047 25.7053 97.9269 25.4612 97.5005 24.9729C97.0741 24.4814 96.8608 23.8189 96.8608 22.9856C96.8608 22.1555 97.0757 21.4931 97.5054 20.9983C97.9351 20.5035 98.5112 20.2561 99.2339 20.2561C99.9435 20.2561 100.502 20.4921 100.909 20.9641C101.316 21.4361 101.519 22.0823 101.519 22.9026V23.2249H97.7349V23.2639C97.7576 23.7847 97.9041 24.1982 98.1743 24.5042C98.4478 24.8101 98.8075 24.9631 99.2534 24.9631C99.9338 24.9631 100.386 24.7255 100.611 24.2502ZM102.281 20.3489H103.179L104.62 24.6848H104.698L106.138 20.3489H107.037L105.088 25.6125H104.229L102.281 20.3489ZM110.723 20.2561C111.394 20.2561 111.929 20.5035 112.33 20.9983C112.733 21.4931 112.935 22.1539 112.935 22.9807C112.935 23.8043 112.733 24.4651 112.33 24.9631C111.926 25.4579 111.39 25.7053 110.723 25.7053C110.349 25.7053 110.017 25.6288 109.727 25.4758C109.437 25.3196 109.221 25.1015 109.078 24.8215H109V27.3704H108.16V20.3489H108.96V21.2278H109.039C109.208 20.925 109.441 20.6874 109.737 20.5149C110.036 20.3424 110.365 20.2561 110.723 20.2561ZM110.523 24.9485C111.005 24.9485 111.382 24.7743 111.656 24.426C111.929 24.0777 112.066 23.5959 112.066 22.9807C112.066 22.3655 111.929 21.8837 111.656 21.5354C111.386 21.1871 111.01 21.0129 110.528 21.0129C110.053 21.0129 109.675 21.1903 109.395 21.5452C109.115 21.8967 108.975 22.3752 108.975 22.9807C108.975 23.5829 109.113 24.0614 109.39 24.4163C109.67 24.7711 110.048 24.9485 110.523 24.9485ZM115.264 24.4358C115.534 24.7776 115.918 24.9485 116.417 24.9485C116.915 24.9485 117.299 24.7776 117.569 24.4358C117.839 24.0907 117.974 23.6057 117.974 22.9807C117.974 22.3557 117.839 21.8723 117.569 21.5305C117.299 21.1855 116.915 21.0129 116.417 21.0129C115.918 21.0129 115.534 21.1855 115.264 21.5305C114.994 21.8723 114.859 22.3557 114.859 22.9807C114.859 23.6057 114.994 24.0907 115.264 24.4358ZM118.189 24.9778C117.756 25.4628 117.165 25.7053 116.417 25.7053C115.668 25.7053 115.075 25.4628 114.639 24.9778C114.206 24.4895 113.99 23.8238 113.99 22.9807C113.99 22.1344 114.206 21.4687 114.639 20.9836C115.072 20.4986 115.665 20.2561 116.417 20.2561C117.168 20.2561 117.761 20.4986 118.194 20.9836C118.627 21.4687 118.843 22.1344 118.843 22.9807C118.843 23.8238 118.625 24.4895 118.189 24.9778ZM120.162 25.6125V20.3489H120.962V21.1301H121.041C121.119 20.873 121.294 20.663 121.568 20.5002C121.841 20.3375 122.152 20.2561 122.5 20.2561C122.66 20.2561 122.8 20.2642 122.92 20.2805V21.1204C122.806 21.0878 122.627 21.0715 122.383 21.0715C121.983 21.0715 121.653 21.192 121.392 21.4329C121.132 21.6737 121.001 21.9797 121.001 22.3508V25.6125H120.162ZM124.615 18.9866H125.455V20.3489H126.626V21.052H125.455V24.0305C125.455 24.3398 125.516 24.5644 125.64 24.7043C125.764 24.8443 125.962 24.9143 126.236 24.9143C126.356 24.9143 126.486 24.9078 126.626 24.8948V25.6028C126.441 25.6353 126.277 25.6516 126.133 25.6516C125.59 25.6516 125.201 25.5426 124.966 25.3245C124.732 25.1064 124.615 24.7467 124.615 24.2454V21.052H123.765V20.3489H124.615V18.9866ZM129.517 24.968C129.95 24.968 130.308 24.8427 130.591 24.592C130.878 24.3414 131.021 24.0273 131.021 23.6497V23.1663L129.605 23.259C129.208 23.2851 128.917 23.3681 128.731 23.5081C128.545 23.648 128.453 23.8515 128.453 24.1184C128.453 24.3821 128.552 24.5904 128.75 24.7434C128.949 24.8931 129.205 24.968 129.517 24.968ZM129.361 25.7053C128.843 25.7053 128.417 25.5637 128.082 25.2805C127.75 24.9941 127.583 24.6132 127.583 24.1379C127.583 23.6692 127.75 23.3014 128.082 23.0344C128.414 22.7675 128.887 22.6161 129.502 22.5803L131.021 22.4875V22.009C131.021 21.6835 130.92 21.4345 130.718 21.262C130.516 21.0894 130.22 21.0032 129.83 21.0032C129.514 21.0032 129.252 21.0601 129.043 21.1741C128.835 21.288 128.702 21.4491 128.643 21.6575H127.793C127.849 21.2375 128.065 20.899 128.443 20.6418C128.824 20.3847 129.296 20.2561 129.859 20.2561C130.497 20.2561 130.99 20.4107 131.338 20.72C131.687 21.0292 131.861 21.4589 131.861 22.009V25.6125H131.06V24.8362H130.982C130.813 25.1161 130.588 25.331 130.308 25.4807C130.028 25.6305 129.712 25.7053 129.361 25.7053ZM133.462 25.6125V18.259H134.302V25.6125H133.462ZM136.626 25.6614C136.454 25.6614 136.304 25.5995 136.177 25.4758C136.054 25.3489 135.992 25.1991 135.992 25.0266C135.992 24.8508 136.054 24.7011 136.177 24.5774C136.304 24.4537 136.454 24.3918 136.626 24.3918C136.802 24.3918 136.952 24.4537 137.076 24.5774C137.199 24.7011 137.261 24.8508 137.261 25.0266C137.261 25.1991 137.199 25.3489 137.076 25.4758C136.952 25.5995 136.802 25.6614 136.626 25.6614ZM140.523 24.968C140.956 24.968 141.314 24.8427 141.597 24.592C141.884 24.3414 142.027 24.0273 142.027 23.6497V23.1663L140.611 23.259C140.214 23.2851 139.922 23.3681 139.737 23.5081C139.551 23.648 139.458 23.8515 139.458 24.1184C139.458 24.3821 139.558 24.5904 139.756 24.7434C139.955 24.8931 140.21 24.968 140.523 24.968ZM140.367 25.7053C139.849 25.7053 139.423 25.5637 139.087 25.2805C138.755 24.9941 138.589 24.6132 138.589 24.1379C138.589 23.6692 138.755 23.3014 139.087 23.0344C139.419 22.7675 139.893 22.6161 140.508 22.5803L142.027 22.4875V22.009C142.027 21.6835 141.926 21.4345 141.724 21.262C141.522 21.0894 141.226 21.0032 140.835 21.0032C140.52 21.0032 140.258 21.0601 140.049 21.1741C139.841 21.288 139.708 21.4491 139.649 21.6575H138.799C138.855 21.2375 139.071 20.899 139.449 20.6418C139.83 20.3847 140.302 20.2561 140.865 20.2561C141.503 20.2561 141.996 20.4107 142.344 20.72C142.693 21.0292 142.867 21.4589 142.867 22.009V25.6125H142.066V24.8362H141.988C141.819 25.1161 141.594 25.331 141.314 25.4807C141.034 25.6305 140.718 25.7053 140.367 25.7053ZM146.983 20.2561C147.653 20.2561 148.189 20.5035 148.589 20.9983C148.993 21.4931 149.195 22.1539 149.195 22.9807C149.195 23.8043 148.993 24.4651 148.589 24.9631C148.186 25.4579 147.65 25.7053 146.983 25.7053C146.609 25.7053 146.277 25.6288 145.987 25.4758C145.697 25.3196 145.481 25.1015 145.337 24.8215H145.259V27.3704H144.419V20.3489H145.22V21.2278H145.298C145.468 20.925 145.7 20.6874 145.997 20.5149C146.296 20.3424 146.625 20.2561 146.983 20.2561ZM146.783 24.9485C147.264 24.9485 147.642 24.7743 147.916 24.426C148.189 24.0777 148.326 23.5959 148.326 22.9807C148.326 22.3655 148.189 21.8837 147.916 21.5354C147.645 21.1871 147.269 21.0129 146.788 21.0129C146.312 21.0129 145.935 21.1903 145.655 21.5452C145.375 21.8967 145.235 22.3752 145.235 22.9807C145.235 23.5829 145.373 24.0614 145.65 24.4163C145.93 24.7711 146.307 24.9485 146.783 24.9485ZM153.077 20.2561C153.747 20.2561 154.283 20.5035 154.683 20.9983C155.087 21.4931 155.289 22.1539 155.289 22.9807C155.289 23.8043 155.087 24.4651 154.683 24.9631C154.279 25.4579 153.744 25.7053 153.077 25.7053C152.702 25.7053 152.37 25.6288 152.081 25.4758C151.791 25.3196 151.574 25.1015 151.431 24.8215H151.353V27.3704H150.513V20.3489H151.314V21.2278H151.392C151.561 20.925 151.794 20.6874 152.09 20.5149C152.39 20.3424 152.719 20.2561 153.077 20.2561ZM152.876 24.9485C153.358 24.9485 153.736 24.7743 154.009 24.426C154.283 24.0777 154.419 23.5959 154.419 22.9807C154.419 22.3655 154.283 21.8837 154.009 21.5354C153.739 21.1871 153.363 21.0129 152.881 21.0129C152.406 21.0129 152.028 21.1903 151.749 21.5452C151.469 21.8967 151.329 22.3752 151.329 22.9807C151.329 23.5829 151.467 24.0614 151.744 24.4163C152.024 24.7711 152.401 24.9485 152.876 24.9485Z" fill="#2F2742"/>
<path fill-rule="evenodd" clip-rule="evenodd" d="M49.4543 23.5486C51.302 23.5486 52.7998 22.083 52.7998 20.2752C52.7998 18.4673 51.302 17.0018 49.4543 17.0018C47.6067 17.0018 46.1089 18.4673 46.1089 20.2752C46.1089 22.083 47.6067 23.5486 49.4543 23.5486Z" fill="#34C749"/>
<path fill-rule="evenodd" clip-rule="evenodd" d="M38.5815 23.5486C40.4292 23.5486 41.927 22.083 41.927 20.2752C41.927 18.4673 40.4292 17.0018 38.5815 17.0018C36.7339 17.0018 35.2361 18.4673 35.2361 20.2752C35.2361 22.083 36.7339 23.5486 38.5815 23.5486Z" fill="#FDBC40"/>
<path fill-rule="evenodd" clip-rule="evenodd" d="M27.7091 23.5486C29.5567 23.5486 31.0546 22.083 31.0546 20.2752C31.0546 18.4673 29.5567 17.0018 27.7091 17.0018C25.8615 17.0018 24.3636 18.4673 24.3636 20.2752C24.3636 22.083 25.8615 23.5486 27.7091 23.5486Z" fill="#FC605C"/>
</g>
</g>
<rect x="16" y="34.1918" width="460" height="24.2193" fill="#63618A"/>
<path d="M35.219 47.2576C35.2574 46.8123 35.667 46.2465 36.4862 46.2465C37.4078 46.2465 37.7406 46.8002 37.7662 47.2576H35.219ZM37.907 48.8103C37.7278 49.2797 37.331 49.5927 36.627 49.5927C35.8718 49.5927 35.219 49.1112 35.1806 48.4372H39.6094C39.6222 48.4011 39.6478 48.1242 39.6478 47.8715C39.6478 45.9456 38.4318 44.8022 36.4606 44.8022C34.8094 44.8022 33.2861 46.0299 33.2861 47.9557C33.2861 49.9658 34.8478 51.1453 36.6014 51.1453C38.2142 51.1453 39.2254 50.2787 39.5326 49.2436L37.907 48.8103Z" fill="white"/>
<path d="M47.0314 44.9827H44.9833L43.6265 48.702L42.1545 44.9827H40.0424L42.6537 50.9648H44.6121L47.0314 44.9827Z" fill="white"/>
<path d="M51.7199 48.1852C53.5312 48.1852 54.7908 47.0467 54.7908 45.4365C54.7908 43.8503 53.5312 42.4451 51.7199 42.4451H48.3616V50.9651H50.3489V48.1852H51.7199Z" fill="white"/>
<path d="M58.4735 49.463C57.7566 49.463 57.0648 48.9703 57.0648 47.9729C57.0648 46.9635 57.7566 46.4948 58.4735 46.4948C59.2031 46.4948 59.8823 46.9635 59.8823 47.9729C59.8823 48.9823 59.2031 49.463 58.4735 49.463ZM58.4735 44.8125C56.612 44.8125 55.1529 46.1223 55.1529 47.9729C55.1529 49.8235 56.612 51.1453 58.4735 51.1453C60.3477 51.1453 61.7942 49.8235 61.7942 47.9729C61.7942 46.1223 60.3477 44.8125 58.4735 44.8125Z" fill="white"/>
<path d="M66.9995 44.9927C66.8737 44.9567 66.685 44.9326 66.4964 44.9326C65.9933 44.9326 65.2008 45.1249 64.8738 45.7978V44.9927H63.0248V50.9651H64.9367V48.3574C64.9367 47.1678 65.6285 46.7351 66.3958 46.7351C66.5844 46.7351 66.7857 46.7472 66.9995 46.7952V44.9927Z" fill="white"/>
<path d="M70.6573 43.2503H68.9466V44.0193C68.9466 44.5721 68.6322 44.9927 67.9781 44.9927H67.6637V46.5909H68.7705V49.1505C68.7705 50.3402 69.563 51.0732 70.8585 51.0732C71.4623 51.0732 71.7767 50.941 71.8522 50.905V49.3909C71.739 49.4149 71.5503 49.4509 71.3491 49.4509C70.934 49.4509 70.6573 49.3188 70.6573 48.8261V46.5909H71.8773V44.9927H70.6573V43.2503Z" fill="white"/>
<path d="M72.904 49.3188C72.904 50.2681 73.6964 51.1333 75.0674 51.1333C75.8976 51.1333 76.5013 50.7968 76.8284 50.2921C76.8284 50.7007 76.8787 50.917 76.8913 50.9651H78.6145C78.6019 50.905 78.539 50.5084 78.539 50.0398V47.1197C78.539 45.894 77.7969 44.8125 75.7718 44.8125C73.9354 44.8125 73.1053 45.942 73.0298 46.7952L74.6901 47.1197C74.7278 46.6751 75.0926 46.2425 75.7592 46.2425C76.363 46.2425 76.6774 46.5429 76.6774 46.8914C76.6774 47.0956 76.5642 47.2519 76.2246 47.2999L74.753 47.5162C73.7216 47.6604 72.904 48.2613 72.904 49.3188ZM75.5328 49.8114C75.0046 49.8114 74.7907 49.511 74.7907 49.1986C74.7907 48.778 75.0926 48.5978 75.4951 48.5377L76.6774 48.3574V48.6218C76.6774 49.5471 76.0988 49.8114 75.5328 49.8114Z" fill="white"/>
<path d="M82.0596 50.9651V42.2649H80.1477V50.9651H82.0596Z" fill="white"/>
<path d="M28.0096 51.1453C30.641 51.1453 32.3994 49.5349 32.3994 46.9225C32.3994 44.3101 30.641 42.6877 28.0219 42.6877H24.8617V51.1453H28.0096Z" fill="white"/>
<ellipse cx="27.3003" cy="45.4365" rx="0.665092" ry="0.634316" fill="#63618A"/>
<ellipse cx="32.1777" cy="47.9737" rx="0.665092" ry="0.634316" fill="#63618A"/>
<rect x="28.8523" y="44.8022" width="3.99055" height="1.26863" fill="#63618A"/>
<ellipse cx="52.1304" cy="45.4365" rx="0.66509" ry="0.634316" transform="rotate(180 52.1304 45.4365)" fill="#63618A"/>
<rect x="50.5786" y="46.0708" width="3.99055" height="1.26863" transform="rotate(180 50.5786 46.0708)" fill="#63618A"/>
<rect x="26.6353" y="47.3394" width="3.99055" height="1.26863" fill="#63618A"/>
<ellipse cx="437.288" cy="46.705" rx="6.84764" ry="6.86214" fill="#DFDFDF"/>
<path d="M440.914 49.9343C440.914 51.9407 439.29 49.9343 437.288 49.9343C435.286 49.9343 433.663 51.9407 433.663 49.9343C433.663 47.9279 435.286 46.3014 437.288 46.3014C439.29 46.3014 440.914 47.9279 440.914 49.9343Z" fill="#C4C4C4"/>
<ellipse cx="437.288" cy="44.2832" rx="2.01401" ry="2.01828" fill="#C4C4C4"/>
<path d="M16 58.381H92.6667V335.339H21C18.2386 335.339 16 333.101 16 330.339V58.381Z" fill="#4E4D73"/>
<path d="M92.5045 58.381H475.984V330.339C475.984 333.101 473.745 335.339 470.984 335.339H92.5045V58.381Z" fill="white"/>
<rect x="401.439" y="41.4575" width="24.9737" height="4.84387" fill="#C4C4C4"/>
<rect x="417.551" y="47.916" width="8.86165" height="3.22924" fill="#C4C4C4"/>
<rect x="407.078" y="47.916" width="8.86165" height="3.22924" fill="#C4C4C4"/>
<ellipse cx="27.6813" cy="83.034" rx="2.81961" ry="2.82559" fill="#B9B9D1"/>
<rect x="34.5288" y="81.8231" width="22.5569" height="2.42193" fill="#908FAE"/>
<ellipse cx="27.6813" cy="91.9145" rx="2.81961" ry="2.82559" fill="#B9B9D1"/>
<rect x="34.5288" y="90.7036" width="22.5569" height="2.42193" fill="#908FAE"/>
<ellipse cx="27.6813" cy="100.795" rx="2.81961" ry="2.82559" fill="#B9B9D1"/>
<rect x="34.5288" y="99.5839" width="22.5569" height="2.42193" fill="#908FAE"/>
<ellipse cx="27.6813" cy="109.675" rx="2.81961" ry="2.82559" fill="#B9B9D1"/>
<rect x="34.5288" y="108.464" width="22.5569" height="2.42193" fill="#908FAE"/>
<rect x="24.8617" y="68.9061" width="22.5569" height="3.22924" fill="#908FAE"/>
<ellipse cx="27.6813" cy="145.197" rx="2.81961" ry="2.82559" fill="#B9B9D1"/>
<rect x="34.5288" y="143.986" width="22.5569" height="2.42193" fill="#908FAE"/>
<ellipse cx="27.6813" cy="154.077" rx="2.81961" ry="2.82559" fill="#B9B9D1"/>
<rect x="34.5288" y="152.867" width="22.5569" height="2.42193" fill="#908FAE"/>
<ellipse cx="27.6813" cy="162.958" rx="2.81961" ry="2.82559" fill="#B9B9D1"/>
<rect x="34.5288" y="161.747" width="22.5569" height="2.42193" fill="#908FAE"/>
<ellipse cx="27.6813" cy="171.838" rx="2.81961" ry="2.82559" fill="#B9B9D1"/>
<rect x="34.5288" y="170.627" width="22.5569" height="2.42193" fill="#908FAE"/>
<rect x="24.8617" y="131.069" width="22.5569" height="3.22924" fill="#908FAE"/>
<rect x="111.642" y="114.923" width="95.8669" height="108.987" fill="#F1F1F1"/>
<rect x="111.642" y="72.1353" width="343.993" height="29.8705" fill="#F1F1F1"/>
<rect x="111.642" y="237.634" width="162.732" height="81.5384" fill="#F1F1F1"/>
<rect x="279.436" y="237.634" width="162.732" height="81.5384" fill="#F1F1F1"/>
<ellipse cx="155.726" cy="145.601" rx="18.5289" ry="18.5682" fill="#E5E5E5"/>
<ellipse cx="305.796" cy="278.807" rx="18.5289" ry="18.5682" fill="#E5E5E5"/>
<rect x="130.752" y="172.242" width="49.9475" height="6.45849" fill="#C4C4C4"/>
<rect x="130.752" y="186.773" width="27.3905" height="6.45849" fill="#E4E4E4"/>
<rect x="161.365" y="186.773" width="19.3345" height="6.45849" fill="#E4E4E4"/>
<rect x="180.699" y="202.112" width="27.3905" height="6.45849" transform="rotate(180 180.699 202.112)" fill="#E4E4E4"/>
<rect x="150.087" y="202.112" width="19.3345" height="6.45849" transform="rotate(180 150.087 202.112)" fill="#E4E4E4"/>
<rect x="122" y="248" width="97" height="7" fill="#C4C4C4"/>
<rect x="122" y="283" width="115" height="7" fill="#C4C4C4"/>
<rect x="122" y="263" width="53" height="6" fill="#E4E4E4"/>
<rect x="173" y="263" width="38" height="6" fill="#E4E4E4"/>
<rect x="211" y="278" width="53" height="6" transform="rotate(180 211 278)" fill="#E4E4E4"/>
<rect x="160" y="278" width="38" height="6" transform="rotate(180 160 278)" fill="#E4E4E4"/>
<rect x="122" y="295" width="39" height="6" fill="#E4E4E4"/>
<rect x="160" y="295" width="28" height="6" fill="#E4E4E4"/>
<rect x="188" y="310" width="39" height="6" transform="rotate(180 188 310)" fill="#E4E4E4"/>
<rect x="150" y="310" width="28" height="6" transform="rotate(180 150 310)" fill="#E4E4E4"/>
<rect x="334.798" y="263.468" width="49.9475" height="6.45849" fill="#C4C4C4"/>
<rect x="334.798" y="278" width="27.3905" height="6.45849" fill="#E4E4E4"/>
<rect x="361.158" y="278" width="19.3345" height="6.45849" fill="#E4E4E4"/>
<rect x="380.493" y="293.339" width="27.3905" height="6.45849" transform="rotate(180 380.493 293.339)" fill="#E4E4E4"/>
<rect x="354.133" y="293.339" width="19.3345" height="6.45849" transform="rotate(180 354.133 293.339)" fill="#E4E4E4"/>
<rect x="226.394" y="114.923" width="95.8669" height="108.987" fill="#F1F1F1"/>
<ellipse cx="269.769" cy="145.601" rx="18.5289" ry="18.5682" fill="#E5E5E5"/>
<rect x="244.795" y="172.242" width="49.9475" height="6.45849" fill="#C4C4C4"/>
<rect x="244.795" y="186.773" width="27.3905" height="6.45849" fill="#E4E4E4"/>
<rect x="275.408" y="186.773" width="19.3345" height="6.45849" fill="#E4E4E4"/>
<rect x="294.743" y="202.112" width="27.3905" height="6.45849" transform="rotate(180 294.743 202.112)" fill="#E4E4E4"/>
<rect x="264.13" y="202.112" width="19.3345" height="6.45849" transform="rotate(180 264.13 202.112)" fill="#E4E4E4"/>
<rect x="337.796" y="114.923" width="95.8669" height="108.987" fill="#F1F1F1"/>
<ellipse cx="386.132" cy="145.601" rx="18.5289" ry="18.5682" fill="#E5E5E5"/>
<rect x="361.158" y="172.242" width="49.9475" height="6.45849" fill="#C4C4C4"/>
<rect x="361.158" y="186.773" width="27.3905" height="6.45849" fill="#E4E4E4"/>
<rect x="391.771" y="186.773" width="19.3345" height="6.45849" fill="#E4E4E4"/>
<rect x="411.106" y="202.112" width="27.3905" height="6.45849" transform="rotate(180 411.106 202.112)" fill="#E4E4E4"/>
<rect x="380.493" y="202.112" width="19.3345" height="6.45849" transform="rotate(180 380.493 202.112)" fill="#E4E4E4"/>
<defs>
<filter id="filter0_dd" x="0" y="0" width="492" height="359.339" filterUnits="userSpaceOnUse" color-interpolation-filters="sRGB">
<feFlood flood-opacity="0" result="BackgroundImageFix"/>
<feColorMatrix in="SourceAlpha" type="matrix" values="0 0 0 0 0 0 0 0 0 0 0 0 0 0 0 0 0 0 127 0"/>
<feOffset dy="8"/>
<feGaussianBlur stdDeviation="8"/>
<feColorMatrix type="matrix" values="0 0 0 0 0 0 0 0 0 0 0 0 0 0 0 0 0 0 0.1 0"/>
<feBlend mode="normal" in2="BackgroundImageFix" result="effect1_dropShadow"/>
<feColorMatrix in="SourceAlpha" type="matrix" values="0 0 0 0 0 0 0 0 0 0 0 0 0 0 0 0 0 0 127 0"/>
<feOffset dy="2"/>
<feGaussianBlur stdDeviation="2"/>
<feColorMatrix type="matrix" values="0 0 0 0 0 0 0 0 0 0 0 0 0 0 0 0 0 0 0.18 0"/>
<feBlend mode="normal" in2="effect1_dropShadow" result="effect2_dropShadow"/>
<feBlend mode="normal" in="SourceGraphic" in2="effect2_dropShadow" result="shape"/>
</filter>
<filter id="filter1_d" x="14" y="6" width="464" height="28.5504" filterUnits="userSpaceOnUse" color-interpolation-filters="sRGB">
<feFlood flood-opacity="0" result="BackgroundImageFix"/>
<feColorMatrix in="SourceAlpha" type="matrix" values="0 0 0 0 0 0 0 0 0 0 0 0 0 0 0 0 0 0 127 0"/>
<feOffset/>
<feGaussianBlur stdDeviation="1"/>
<feColorMatrix type="matrix" values="0 0 0 0 0 0 0 0 0 0 0 0 0 0 0 0 0 0 0.15 0"/>
<feBlend mode="normal" in2="BackgroundImageFix" result="effect1_dropShadow"/>
<feBlend mode="normal" in="SourceGraphic" in2="effect1_dropShadow" result="shape"/>
</filter>
</defs>
</svg>
