<svg width="186" height="28" viewBox="0 0 186 28" fill="none" xmlns="http://www.w3.org/2000/svg">
  <path d="M185.229 0V27.4316H179.038V0H185.229Z" fill="#12304B"/>
  <path fill-rule="evenodd" clip-rule="evenodd" d="M96.922 9.99996C96.922 15.0771 92.8428 18.6666 86.9772 18.6666H82.5374V27.4316H76.1016V12L83.2822 12V8L76.1016 8V0.568333H86.9772C92.8428 0.568333 96.922 4.99863 96.922 9.99996ZM86.1544 9.99999C86.1544 8.89543 87.1187 8 88.3083 8C89.4978 8 90.4621 8.89543 90.4621 9.99999C90.4621 11.1046 89.4978 12 88.3083 12C87.1187 12 86.1544 11.1046 86.1544 9.99999Z" fill="#12304B"/>
  <path fill-rule="evenodd" clip-rule="evenodd" d="M98.0948 17.9972C98.0948 12.1623 102.82 8.03245 108.848 8.03245C114.917 8.03245 119.602 12.1623 119.602 17.9972C119.602 23.8321 114.917 27.9999 108.848 27.9999C102.82 27.9999 98.0948 23.8321 98.0948 17.9972ZM104.286 17.9972C104.286 21.142 106.526 22.6954 108.848 22.6954C111.211 22.6954 113.41 21.1799 113.41 17.9972C113.41 14.8146 111.211 13.3369 108.848 13.3369C106.526 13.3369 104.286 14.8146 104.286 17.9972Z" fill="#12304B"/>
  <path d="M136.459 8.60078C136.051 8.48711 135.44 8.41133 134.829 8.41133C133.2 8.41133 130.634 9.01756 129.575 11.1393V8.60078H123.587V27.4316H129.779V19.2097C129.779 15.4587 132.019 14.0947 134.504 14.0947C135.115 14.0947 135.766 14.1326 136.459 14.2841V8.60078Z" fill="#12304B"/>
  <path d="M142.764 3.10689H148.304V8.60078H152.255V13.64H148.304V20.6873C148.304 22.2408 149.2 22.6576 150.544 22.6576C151.196 22.6576 151.807 22.5439 152.174 22.4681V27.2421C151.929 27.3558 150.911 27.7726 148.956 27.7726C144.76 27.7726 142.194 25.4613 142.194 21.7103V13.64H138.61V8.60078H139.628C141.746 8.60078 142.764 7.27467 142.764 5.53178V3.10689Z" fill="#12304B"/>
  <path fill-rule="evenodd" clip-rule="evenodd" d="M155.58 22.2408C155.58 25.234 158.146 27.962 162.586 27.962C165.274 27.962 167.23 26.9011 168.289 25.3098C168.289 26.598 168.452 27.28 168.492 27.4316H174.073C174.032 27.2421 173.828 25.9918 173.828 24.5141V15.3071C173.828 11.4424 171.425 8.03245 164.867 8.03245C158.92 8.03245 156.232 11.594 155.987 14.2841L161.364 15.3071C161.486 13.9052 162.667 12.5412 164.826 12.5412C166.782 12.5412 167.8 13.4884 167.8 14.5872C167.8 15.2313 167.433 15.7239 166.333 15.8754L161.568 16.5574C158.228 17.0121 155.58 18.9066 155.58 22.2408ZM164.093 23.7942C162.382 23.7942 161.69 22.847 161.69 21.8619C161.69 20.5358 162.667 19.9674 163.971 19.778L167.8 19.2097V20.0432C167.8 22.9607 165.926 23.7942 164.093 23.7942Z" fill="#12304B"/>
  <path fill-rule="evenodd" clip-rule="evenodd" d="M42.2463 20.6375C41.6659 22.1176 40.3809 23.1043 38.101 23.1043C35.6553 23.1043 33.5413 21.5863 33.4169 19.4611H47.7594C47.8009 19.3472 47.8838 18.4743 47.8838 17.6774C47.8838 11.6053 43.9458 8 37.5622 8C32.2148 8 27.282 11.871 27.282 17.943C27.282 24.2808 32.3392 27.9999 38.0181 27.9999C43.2411 27.9999 46.5159 25.2675 47.5107 22.0037L42.2463 20.6375ZM33.5413 15.7419C33.6656 14.3377 34.9921 12.5541 37.6451 12.5541C40.6296 12.5541 41.7074 14.2998 41.7903 15.7419H33.5413Z" fill="#12304B"/>
  <path d="M71.7946 8.56926H65.1623L60.7683 20.296L56.0013 8.56926H49.1617L57.6179 27.4307H63.9602L71.7946 8.56926Z" fill="#12304B"/>
  <path fill-rule="evenodd" clip-rule="evenodd" d="M10.1941 27.9999C16.6932 27.9999 21.5478 25.0466 23.4861 19.9908C22.3929 19.8949 21.5376 19.0401 21.5376 17.9998C21.5376 16.8952 22.5019 15.9998 23.6914 15.9998C23.922 15.9998 24.1442 16.0335 24.3525 16.0958C24.3907 15.6367 24.4102 15.1664 24.4102 14.6854C24.4102 13.7489 24.3366 12.8528 24.1936 12H12.9231V8H22.8633C20.6229 3.77463 16.0936 1.33331 10.234 1.33331H0V27.9999H10.1941ZM7.89734 12C9.08687 12 10.0512 11.1046 10.0512 9.99999C10.0512 8.89543 9.08687 8 7.89734 8C6.70781 8 5.7435 8.89543 5.7435 9.99999C5.7435 11.1046 6.70781 12 7.89734 12ZM18.6664 15.9998H5.74341V19.9998H18.6664V15.9998Z" fill="#12304B"/>
</svg>
