<svg width="128" height="48" viewBox="0 0 128 48" fill="none" xmlns="http://www.w3.org/2000/svg">
<path fill-rule="evenodd" clip-rule="evenodd" d="M16.3291 8.17575C17.9596 8.17575 19.2001 9.41625 19.2001 10.9778C19.2001 12.5168 17.9596 13.7798 16.3291 13.7798C14.7443 13.7798 13.4813 12.5168 13.4813 10.9778C13.4813 9.41625 14.7443 8.17575 16.3291 8.17575ZM16.3291 35.1157C17.9596 35.1157 19.2001 36.3562 19.2001 37.9177C19.2001 39.4567 17.9596 40.7197 16.3291 40.7197C14.7443 40.7197 13.4813 39.4567 13.4813 37.9177C13.4813 36.3562 14.7443 35.1157 16.3291 35.1157ZM32.6123 24.4365C32.6123 26.067 31.3726 27.3075 29.8103 27.3075C28.2721 27.3075 27.0083 26.067 27.0083 24.4365C27.0083 22.8518 28.2721 21.5887 29.8103 21.5887C30.1813 21.5915 30.5482 21.6674 30.8899 21.812C31.2316 21.9567 31.5414 22.1672 31.8017 22.4317C32.0619 22.6962 32.2675 23.0094 32.4066 23.3534C32.5457 23.6974 32.6156 24.0655 32.6123 24.4365V24.4365ZM5.69555 24.4365C5.69555 26.067 4.4558 27.3075 2.89355 27.3075C1.3553 27.3075 0.0915527 26.067 0.0915527 24.4365C0.0915527 22.8518 1.3553 21.5887 2.89355 21.5887C3.2646 21.5915 3.63146 21.6674 3.97315 21.812C4.31485 21.9567 4.62468 22.1672 4.88492 22.4317C5.14516 22.6962 5.35071 23.0094 5.4898 23.3534C5.6289 23.6974 5.69882 24.0655 5.69555 24.4365V24.4365Z" fill="#FF6A13"/>
<path d="M43.6365 1.30875H52.1115C56.589 1.30875 59.4832 4.68525 59.4832 8.6355C59.4832 12.5625 56.5897 15.9615 52.1107 15.9615H48.3225V21.5887H43.6372V1.30875H43.6365ZM54.7747 8.6355C54.7747 6.75225 53.5117 5.12175 51.537 5.12175H48.3217V12.1267H51.537C53.5117 12.1267 54.7747 10.5187 54.7747 8.6355V8.6355ZM63.2955 0.183746C64.926 0.183746 66.1665 1.42425 66.1665 2.98575C66.1665 4.52475 64.926 5.78775 63.2955 5.78775C61.7107 5.78775 60.4477 4.52475 60.4477 2.98575C60.4477 1.42425 61.7107 0.183746 63.2955 0.183746V0.183746ZM61.0905 7.62525H65.523V21.5887H61.0905V7.62525ZM67.4527 14.607C67.4527 10.6102 70.3695 7.257 75.1927 7.257C80.061 7.257 82.9552 10.6102 82.9552 14.607C82.9552 18.603 80.061 21.9562 75.1927 21.9562C70.3927 21.9562 67.4527 18.5797 67.4527 14.6062V14.607ZM78.5452 14.607C78.5452 12.6772 77.2132 11.0467 75.1927 11.0467C73.194 11.0467 71.8852 12.6772 71.8852 14.607C71.8852 16.5817 73.194 18.1665 75.1927 18.1665C77.2132 18.1665 78.5452 16.5585 78.5452 14.607Z" fill="#FF6A13"/>
<path fill-rule="evenodd" clip-rule="evenodd" d="M84.8843 7.62524H89.3168V9.64574C90.0975 8.13074 91.728 7.28024 93.8873 7.28024C95.6783 7.28024 97.0335 7.87724 97.7918 8.86499C98.664 9.94499 98.8943 11.2995 98.8943 13.2975V21.5887H94.4618V14.445C94.4618 12.447 93.864 11.0692 92.004 11.0692C90.2123 11.0692 89.3168 12.4702 89.3168 14.6062V21.6112H84.8843V7.62374V7.62524Z" fill="#FF6A13"/>
<path d="M105.095 15.663C105.187 17.34 105.875 18.7635 108.195 18.7635C109.734 18.7635 110.492 18.075 110.768 17.1787H115.109C114.695 19.8202 112.214 21.9562 108.218 21.9562C103.326 21.9562 100.685 18.9247 100.685 14.6062C100.685 10.5187 103.258 7.25774 108.103 7.25774C112.467 7.25774 115.292 10.2202 115.292 13.6192C115.292 14.193 115.292 14.8365 115.154 15.663H105.095ZM105.095 13.1137H110.951C110.951 11.3227 109.757 10.197 108.08 10.197C106.335 10.197 105.095 11.2305 105.095 13.1145L105.095 13.1137Z" fill="#FF6A13"/>
<path fill-rule="evenodd" clip-rule="evenodd" d="M127.441 11.6437C126.844 11.5065 126.476 11.4375 125.879 11.4375C123.445 11.4375 121.86 12.7005 121.86 16.1227V21.5655H117.427V7.602H121.86V9.852C122.503 8.54325 124.18 7.3725 126.109 7.3725C126.66 7.3725 127.027 7.4415 127.441 7.602V11.6445V11.6437Z" fill="#FF6A13"/>
<path fill-rule="evenodd" clip-rule="evenodd" d="M54.0862 43.4295V47.472H43.6365V27.2152H48.3217V43.4302L54.0862 43.4295Z" fill="#FF6A13"/>
<path d="M69.864 33.531V47.4945H65.4315V45.5197C64.7655 46.7827 62.9745 47.8395 61.1828 47.8395C57.1635 47.8395 54.3848 44.6925 54.3848 40.5127C54.3848 36.3562 57.1635 33.1867 61.1828 33.1867C62.9745 33.1867 64.7655 34.266 65.4315 35.529V33.531H69.864V33.531ZM65.4315 40.5135C65.4315 38.607 64.0995 36.9532 62.1015 36.9532C60.1035 36.9532 58.7715 38.607 58.7715 40.5127C58.7715 42.4417 60.1035 44.073 62.1015 44.073C64.0995 44.073 65.4315 42.4417 65.4315 40.5127V40.5135ZM77.19 47.472H72.7575V27.2152H77.19V35.529C77.8568 34.266 79.6478 33.1867 81.4853 33.1867C85.5045 33.1867 88.2833 36.333 88.2833 40.5127C88.2833 44.6925 85.5045 47.8395 81.4853 47.8395C79.6703 47.8395 77.8568 46.806 77.1908 45.5197V47.472H77.19ZM83.8508 40.5127C83.8508 38.607 82.5188 36.9532 80.5433 36.9532C78.5228 36.9532 77.1908 38.607 77.1908 40.5127C77.1908 42.4417 78.5228 44.073 80.5433 44.073C82.5188 44.073 83.8508 42.4417 83.8508 40.5127Z" fill="#FF6A13"/>
<path fill-rule="evenodd" clip-rule="evenodd" d="M102.132 43.3605C102.132 46.668 99.2842 47.8395 95.8162 47.8395C91.8427 47.8395 89.3857 46.0245 89.3857 42.8092H93.726C93.726 44.2792 94.6447 44.8538 95.9535 44.8538C97.0335 44.8538 97.7685 44.4862 97.7685 43.5442C97.7685 42.465 96.666 42.327 94.0252 41.4548C91.7055 40.7423 89.7075 40.0762 89.7075 37.3665C89.7075 34.473 92.1187 33.1178 95.862 33.1178C99.9045 33.1178 101.879 35.1847 101.879 37.8255H97.5157C97.5157 36.678 96.9187 36.0113 95.7007 36.0113C94.806 36.0113 94.0477 36.4252 94.0477 37.2517C94.0477 38.262 95.265 38.4457 97.608 39.2265C100.111 39.984 102.132 40.6508 102.132 43.3605V43.3605Z" fill="#FF6A13"/>
</svg>
