<svg width="190" height="48" viewBox="0 0 190 48" fill="none" xmlns="http://www.w3.org/2000/svg">
<path d="M24.1463 25.8492L13.6519 31.9119C13.1038 32.212 12.46 32.2856 11.8583 32.117C11.2566 31.9485 10.7447 31.5511 10.4322 31.01C10.1197 30.4689 10.0313 29.827 10.186 29.2216C10.3407 28.6162 10.7262 28.0953 11.26 27.7705L21.7544 21.7077C22.3025 21.4077 22.9463 21.3341 23.548 21.5026C24.1497 21.6712 24.6616 22.0685 24.9741 22.6096C25.2866 23.1507 25.375 23.7926 25.2203 24.398C25.0656 25.0035 24.6801 25.5243 24.1463 25.8492V25.8492Z" fill="#26B29F"/>
<path d="M33.8714 20.2338L30.3579 22.262C30.086 22.419 29.7858 22.5208 29.4745 22.5618C29.1632 22.6027 28.8469 22.5819 28.5436 22.5007C27.9311 22.3365 27.4089 21.9357 27.0919 21.3865C26.7749 20.8373 26.6891 20.1847 26.8533 19.5722C27.0175 18.9597 27.4182 18.4375 27.9674 18.1205L31.481 16.0996C32.0301 15.7826 32.6828 15.6968 33.2953 15.8609C33.9077 16.0251 34.4299 16.4259 34.7469 16.9751C35.0639 17.5243 35.1498 18.1769 34.9856 18.7894C34.8214 19.4019 34.4206 19.9241 33.8714 20.2411V20.2338Z" fill="#4FC2E9"/>
<path d="M22.5655 38.0642C23.8857 38.0642 24.956 36.994 24.956 35.6738C24.956 34.3535 23.8857 33.2833 22.5655 33.2833C21.2453 33.2833 20.175 34.3535 20.175 35.6738C20.175 36.994 21.2453 38.0642 22.5655 38.0642Z" fill="#A91572"/>
<path d="M23.7623 14.3977L13.6576 20.2339C13.3854 20.3996 13.0827 20.5092 12.7675 20.5563C12.4522 20.6033 12.1308 20.587 11.822 20.508C11.5132 20.4291 11.2232 20.2893 10.9692 20.0968C10.7152 19.9042 10.5023 19.6629 10.3429 19.3869C10.1834 19.1109 10.0808 18.8058 10.041 18.4895C10.0011 18.1733 10.0249 17.8523 10.1109 17.5454C10.1969 17.2385 10.3433 16.9518 10.5416 16.7023C10.7399 16.4528 10.9861 16.2454 11.2657 16.0924L21.3704 10.2562C21.6426 10.0905 21.9453 9.98091 22.2605 9.93383C22.5758 9.88674 22.8972 9.90314 23.206 9.98205C23.5148 10.061 23.8048 10.2008 24.0588 10.3933C24.3128 10.5859 24.5257 10.8272 24.6852 11.1032C24.8446 11.3792 24.9472 11.6843 24.987 12.0005C25.0269 12.3168 25.0031 12.6378 24.9171 12.9447C24.8312 13.2516 24.6847 13.5383 24.4864 13.7878C24.2881 14.0373 24.0419 14.2447 23.7623 14.3977V14.3977Z" fill="#059B9B"/>
<path d="M33.8715 31.9018L29.9827 34.1465C29.7107 34.3035 29.4105 34.4053 29.0992 34.4463C28.7879 34.4872 28.4716 34.4665 28.1683 34.3852C27.5559 34.221 27.0337 33.8202 26.7167 33.271C26.3997 32.7218 26.3138 32.0692 26.478 31.4567C26.6422 30.8442 27.043 30.3221 27.5922 30.0051L31.481 27.7604C32.0302 27.4434 32.6828 27.3575 33.2953 27.5217C33.9078 27.6859 34.43 28.0867 34.747 28.6359C35.064 29.1851 35.1498 29.8377 34.9856 30.4502C34.8215 31.0627 34.4207 31.5848 33.8715 31.9018Z" fill="#207FC3"/>
<path d="M142.996 16.7824C138.665 16.7824 135.399 19.8787 135.399 23.9856C135.399 28.0924 138.665 31.2176 142.996 31.2176C147.279 31.2176 150.509 28.1083 150.509 23.9856C150.509 19.8629 147.279 16.7824 142.996 16.7824ZM142.996 27.8816C141.189 27.8816 139.269 26.5161 139.269 23.9841C139.269 21.7986 140.906 20.0866 142.996 20.0866C144.787 20.0866 146.639 21.5446 146.639 23.9841C146.639 26.4237 144.787 27.8816 142.996 27.8816Z" fill="#1E2144"/>
<path d="M101.193 26.1927H98.5743C98.3864 26.1896 98.2002 26.2281 98.029 26.3055C97.8578 26.3829 97.7059 26.4972 97.584 26.6402C96.9792 27.3735 96.1073 27.7618 95.0637 27.7618C92.9475 27.7618 91.4707 26.2144 91.4707 24C91.4707 21.7856 92.9475 20.2367 95.0637 20.2367C96.0539 20.2367 96.8854 20.5976 97.47 21.2775C97.5922 21.4184 97.7435 21.5312 97.9134 21.6079C98.0834 21.6847 98.268 21.7236 98.4545 21.7221H101.164C101.255 21.7222 101.344 21.6996 101.425 21.6565C101.505 21.6135 101.573 21.5512 101.623 21.4753C101.673 21.4029 101.703 21.3193 101.712 21.232C101.721 21.1447 101.708 21.0567 101.674 20.9758C100.617 18.428 98.0229 16.7896 95.0637 16.7896C90.8212 16.7896 87.6223 19.8917 87.6223 24.0072C87.6223 28.1227 90.8212 31.2248 95.0637 31.2248C98.0951 31.2248 100.706 29.5417 101.704 26.9361C101.735 26.8547 101.746 26.7669 101.736 26.6803C101.725 26.5937 101.693 26.511 101.643 26.4396C101.594 26.3644 101.528 26.3026 101.449 26.2595C101.37 26.2164 101.282 26.1935 101.193 26.1927V26.1927Z" fill="#1E2144"/>
<path d="M110.691 16.7824C107.96 16.7824 105.773 17.9704 104.839 19.9581C104.801 20.0415 104.783 20.1333 104.79 20.2251C104.796 20.3168 104.825 20.4056 104.874 20.4832C104.923 20.5608 104.991 20.6248 105.072 20.6693C105.152 20.7137 105.242 20.7372 105.334 20.7376H108.11C108.425 20.7398 108.73 20.6262 108.966 20.4186C109.418 20.0188 110.052 19.8311 110.905 19.8412C111.479 19.8533 112.025 20.0896 112.426 20.4995C112.828 20.9093 113.053 21.4602 113.053 22.0339V22.5464H109.235C105.716 22.5464 103.614 24.1559 103.614 26.8524C103.614 29.5013 105.578 31.2133 108.618 31.2133C110.222 31.2133 111.585 30.7413 112.669 29.8116L113.053 29.4825V30.6676C113.053 30.8122 113.111 30.9508 113.213 31.053C113.315 31.1553 113.454 31.2129 113.599 31.2133H116.356C116.5 31.2129 116.639 31.1553 116.741 31.053C116.843 30.9508 116.901 30.8122 116.901 30.6676V22.122C116.901 18.7283 114.638 16.7824 110.691 16.7824ZM113.053 25.4839C113.053 27.2595 111.439 28.3219 109.877 28.3219C108.545 28.3219 107.685 27.6579 107.685 26.6315C107.685 25.6052 108.51 24.9426 109.739 24.9426H113.059L113.053 25.4839Z" fill="#1E2144"/>
<path d="M56.9027 26.7167C56.9027 24.6395 55.5848 23.2191 53.1943 22.7153L49.8901 22.0426C49.0355 21.8564 48.64 21.4724 48.64 20.8344C48.64 20.2223 49.1192 19.5092 50.4689 19.5092C51.1138 19.4909 51.7461 19.6908 52.2632 20.0765C52.4923 20.2543 52.7744 20.3504 53.0644 20.3493H55.797C55.8911 20.3504 55.9838 20.3266 56.0657 20.2802C56.1476 20.2338 56.2158 20.1665 56.2632 20.0852C56.3131 20.0031 56.3405 19.9094 56.3428 19.8134C56.3451 19.7174 56.3221 19.6224 56.2762 19.5381C55.3437 17.7871 53.2448 16.7824 50.5252 16.7824C47.0449 16.7824 44.7078 18.6012 44.7078 21.3107C44.7078 23.9091 46.8284 24.8459 48.6053 25.1707L51.465 25.7322C51.8562 25.8059 53.0528 26.0325 53.0528 26.9968C53.0528 27.6694 52.4177 28.3493 51.0001 28.3493C50.2336 28.3493 49.5783 28.1703 49.1048 27.834C48.8561 27.6694 48.5628 27.5852 48.2647 27.5929H45.177C45.0861 27.5922 44.9966 27.6146 44.9168 27.6581C44.837 27.7015 44.7696 27.7645 44.7208 27.8412C44.6704 27.9197 44.6404 28.0095 44.6336 28.1026C44.6268 28.1956 44.6434 28.2889 44.6819 28.3739C45.4974 30.1812 47.7133 31.2176 50.7446 31.2176C54.544 31.2176 56.9027 29.4926 56.9027 26.7167Z" fill="#1E2144"/>
<path d="M69.9537 16.7824H67.3351C67.077 16.7819 66.8244 16.8571 66.6086 16.9988C66.3929 17.1404 66.2234 17.3422 66.1211 17.5792V17.5792L63.7985 22.9332L61.6332 17.6066C61.5348 17.3625 61.3654 17.1534 61.1469 17.0065C60.9284 16.8595 60.6709 16.7815 60.4077 16.7824H57.8714C57.7812 16.7822 57.6923 16.8045 57.6129 16.8472C57.5334 16.8899 57.4658 16.9516 57.4161 17.0269C57.3664 17.1022 57.3363 17.1887 57.3283 17.2785C57.3203 17.3684 57.3348 17.4588 57.3705 17.5417L61.7343 27.7373L60.5506 30.4583C60.5147 30.5412 60.5 30.6317 60.5078 30.7217C60.5155 30.8117 60.5455 30.8984 60.595 30.9739C60.6445 31.0495 60.712 31.1115 60.7914 31.1546C60.8708 31.1976 60.9597 31.2203 61.05 31.2205H63.683C63.9416 31.2207 64.1946 31.145 64.4106 31.0028C64.6266 30.8607 64.7963 30.6583 64.8985 30.4208L70.4488 17.546C70.485 17.4629 70.4997 17.372 70.4917 17.2817C70.4836 17.1914 70.453 17.1046 70.4026 17.0292C70.3545 16.9538 70.2881 16.8916 70.2097 16.8485C70.1312 16.8053 70.0432 16.7826 69.9537 16.7824Z" fill="#1E2144"/>
<path d="M78.1759 16.7824C73.8699 16.7824 71.1619 19.86 71.1619 23.9437V30.672C71.1622 30.8166 71.2199 30.9551 71.3221 31.0574C71.4244 31.1596 71.5629 31.2172 71.7075 31.2176H74.6047C74.9049 31.2176 75.0103 30.9722 75.0103 30.672V23.9625C75.0103 23.9625 75.0103 23.9538 75.0103 23.9495C75.0103 21.777 76.0987 20.0751 78.1774 20.0751C79.9573 20.0751 81.2608 21.5186 81.2608 23.9495V23.9625V30.6777C81.2608 30.8222 81.3181 30.9608 81.4201 31.0631C81.5221 31.1653 81.6605 31.223 81.805 31.2234H84.7007C85.0024 31.2234 85.1063 30.978 85.1063 30.6777V23.9625V23.9495C85.1063 19.86 82.4343 16.7824 78.1759 16.7824Z" fill="#1E2144"/>
<path d="M126.462 16.7824C122.156 16.7824 119.448 19.86 119.448 23.9437V30.672C119.448 30.8167 119.505 30.9555 119.608 31.0578C119.71 31.1601 119.849 31.2176 119.993 31.2176H122.891C123.191 31.2176 123.295 30.9722 123.295 30.672V23.9437C123.295 21.7712 124.383 20.0693 126.462 20.0693C128.242 20.0693 129.545 21.5128 129.545 23.9437C129.545 23.9437 129.545 23.9524 129.545 23.9567V30.672C129.546 30.8166 129.603 30.9551 129.705 31.0574C129.808 31.1596 129.946 31.2172 130.091 31.2176H132.987C133.288 31.2176 133.392 30.9722 133.392 30.672V23.9625V23.9495C133.392 19.86 130.72 16.7824 126.462 16.7824Z" fill="#1E2144"/>
<path d="M172.675 16.7766C168.344 16.7766 165.077 19.873 165.077 23.9798C165.077 28.0866 168.344 31.2118 172.675 31.2118C176.958 31.2118 180.181 28.1025 180.181 23.9798C180.181 19.8571 176.958 16.7766 172.675 16.7766ZM172.675 27.8773C170.867 27.8773 168.947 26.5117 168.947 23.9798C168.947 21.7957 170.584 20.0823 172.675 20.0823C174.466 20.0823 176.318 21.5402 176.318 23.9798C176.318 26.4193 174.466 27.8773 172.675 27.8773Z" fill="#1E2144"/>
<path d="M154.343 31.2162C155.664 31.2162 156.734 30.1459 156.734 28.8257C156.734 27.5055 155.664 26.4352 154.343 26.4352C153.023 26.4352 151.953 27.5055 151.953 28.8257C151.953 30.1459 153.023 31.2162 154.343 31.2162Z" fill="#1E2144"/>
<path d="M162.525 16.7766H159.77C159.468 16.7766 159.224 17.0209 159.224 17.3223V30.6662C159.224 30.9675 159.468 31.2118 159.77 31.2118H162.525C162.827 31.2118 163.071 30.9675 163.071 30.6662V17.3223C163.071 17.0209 162.827 16.7766 162.525 16.7766Z" fill="#1E2144"/>
<path d="M161.147 14.3457C162.467 14.3457 163.537 13.2755 163.537 11.9553C163.537 10.635 162.467 9.56478 161.147 9.56478C159.826 9.56478 158.756 10.635 158.756 11.9553C158.756 13.2755 159.826 14.3457 161.147 14.3457Z" fill="#1E2144"/>
</svg>
